<svg width="404" height="433" viewBox="0 0 404 433" fill="none" xmlns="http://www.w3.org/2000/svg">
<path fill-rule="evenodd" clip-rule="evenodd" d="M48.7171 95.4538C30.6383 104.979 23.704 127.356 33.2289 145.435L105.486 282.582C115.011 300.661 137.388 307.595 155.467 298.07L296.048 224.004C314.127 214.479 321.061 192.102 311.536 174.023L239.279 36.8757C229.754 18.7968 207.377 11.8626 189.298 21.3875L48.7171 95.4538Z" fill="black"/>
<path d="M14.375 402C10.9375 402 8.75 399.75 8.75 396.188V317.625C8.75 314.062 10.9375 311.812 14.375 311.812H39.0625C65.8125 311.812 81.625 328.5 81.625 356.875C81.625 385.312 65.875 402 39.0625 402H14.375ZM20 391.875H38.3125C58.75 391.875 70.125 379.375 70.125 357C70.125 334.438 58.8125 321.938 38.3125 321.938H20V391.875ZM112.875 403.125C99.9375 403.125 91.25 395.312 91.25 383.625C91.25 372.5 99.8125 365.5 114.812 364.625L133.5 363.562V358.125C133.5 350.188 128.25 345.438 119.25 345.438C112.188 345.438 107.375 348 103.75 354.438C102.75 356.25 101.312 357.062 99.25 357.062C96.4375 357.062 94.4375 355.125 94.4375 352.188C94.4375 350.812 94.875 349.25 95.75 347.688C99.4375 340.562 108.938 335.875 119.5 335.875C134.75 335.875 144.375 344.125 144.375 357.062V397.625C144.375 400.875 142.25 403.125 139.25 403.125C136.188 403.125 134.062 400.875 134.062 397.625V390.812H133.812C129.938 398.25 121.625 403.125 112.875 403.125ZM115.312 393.875C125.562 393.875 133.5 386.688 133.5 377.312V372L116.062 373.062C107.312 373.625 102.312 377.5 102.312 383.625C102.312 389.812 107.5 393.875 115.312 393.875ZM164.188 403.125C161 403.125 158.75 400.75 158.75 397.312V316.5C158.75 313.062 161 310.688 164.188 310.688C167.375 310.688 169.625 313.062 169.625 316.5V397.312C169.625 400.75 167.375 403.125 164.188 403.125ZM187.812 387V345.938H182.375C179.25 345.938 177.5 344.312 177.5 341.438C177.5 338.625 179.25 337 182.375 337H187.812V325.875C187.812 322.438 190.062 320.062 193.25 320.062C196.438 320.062 198.688 322.438 198.688 325.875V337H207.062C210.188 337 211.938 338.625 211.938 341.438C211.938 344.312 210.188 345.938 207.062 345.938H198.688V384.625C198.688 390.125 200.625 392.75 206.062 393.125L207 393.188C210.562 393.438 212.188 394.875 212.188 397.438C212.188 400.75 210.312 402.5 204.25 402.5H203.562C193.062 402.5 187.812 397.375 187.812 387ZM232.125 402.625C228.125 402.625 225 399.5 225 395.5C225 391.5 228.125 388.375 232.125 388.375C236.125 388.375 239.25 391.5 239.25 395.5C239.25 399.5 236.125 402.625 232.125 402.625ZM285.812 403.5C260.25 403.5 244.25 385.562 244.25 356.938C244.25 328.312 260.25 310.312 285.812 310.312C311.375 310.312 327.375 328.312 327.375 356.938C327.375 385.562 311.375 403.5 285.812 403.5ZM285.812 393.125C304.25 393.125 315.812 379.125 315.812 356.938C315.812 334.688 304.25 320.688 285.812 320.688C267.375 320.688 255.812 334.688 255.812 356.938C255.812 379.125 267.375 393.125 285.812 393.125ZM349.688 372.938C346.625 372.938 344.812 370.938 344.75 367.75L344.125 316.312C344.125 312.938 346.562 310.688 349.688 310.688C352.812 310.688 355.25 312.938 355.25 316.312L354.625 367.75C354.562 370.938 352.75 372.938 349.688 372.938ZM349.688 402.625C345.688 402.625 342.562 399.5 342.562 395.5C342.562 391.438 345.688 388.375 349.688 388.375C353.75 388.375 356.812 391.438 356.812 395.5C356.812 399.5 353.75 402.625 349.688 402.625Z" fill="black"/>
</svg>
